<?xml version="1.0" encoding="UTF-8"?>
<svg id="b" data-name="Layer_2" xmlns="http://www.w3.org/2000/svg" xmlns:xlink="http://www.w3.org/1999/xlink" viewBox="0 0 150 158.636">
  <defs>
    <linearGradient id="d" x1="76.483" y1="6.554" x2="75.58" y2="93.987" gradientUnits="userSpaceOnUse">
      <stop offset=".844" stop-color="#00a99d"/>
      <stop offset=".855" stop-color="#029a8f" stop-opacity=".979"/>
      <stop offset=".876" stop-color="#09736b" stop-opacity=".925"/>
      <stop offset=".905" stop-color="#153432" stop-opacity=".837"/>
      <stop offset=".917" stop-color="#1a1a1a" stop-opacity=".8"/>
      <stop offset=".941" stop-color="#1b1d1d" stop-opacity=".799"/>
      <stop offset=".954" stop-color="#212929" stop-opacity=".793"/>
      <stop offset=".965" stop-color="#2a3c3c" stop-opacity=".785"/>
      <stop offset=".974" stop-color="#385959" stop-opacity=".772"/>
      <stop offset=".982" stop-color="#4a7d7d" stop-opacity=".757"/>
      <stop offset=".989" stop-color="#60aaaa" stop-opacity=".737"/>
      <stop offset=".996" stop-color="#79dede" stop-opacity=".714"/>
      <stop offset="1" stop-color="#89ffff" stop-opacity=".7"/>
    </linearGradient>
    <linearGradient id="e" x1="21.676" y1="107.309" x2="21.644" y2="110.408" gradientUnits="userSpaceOnUse">
      <stop offset=".03" stop-color="#f15a24"/>
      <stop offset=".187" stop-color="#f15a24" stop-opacity=".985"/>
      <stop offset=".331" stop-color="#f15a24" stop-opacity=".939"/>
      <stop offset=".471" stop-color="#f15a24" stop-opacity=".861"/>
      <stop offset=".607" stop-color="#f15a24" stop-opacity=".752"/>
      <stop offset=".74" stop-color="#f15a24" stop-opacity=".614"/>
      <stop offset=".831" stop-color="#f15a24" stop-opacity=".5"/>
      <stop offset="1" stop-color="aqua"/>
    </linearGradient>
    <linearGradient id="f" x1="30.472" y1="107.199" x2="30.372" y2="116.798" xlink:href="#e"/>
    <linearGradient id="g" x1="44.275" y1="50.964" x2="44.196" y2="58.614" xlink:href="#e"/>
    <linearGradient id="h" x1="52.021" y1="56.633" x2="52.021" y2="56.675" xlink:href="#e"/>
    <linearGradient id="i" x1="49.803" y1="26.976" x2="49.621" y2="44.547" xlink:href="#e"/>
    <linearGradient id="j" x1="45.305" y1="96.307" x2="45.045" y2="121.467" xlink:href="#e"/>
    <linearGradient id="k" x1="73.506" y1="41.357" x2="73.142" y2="76.683" xlink:href="#e"/>
    <linearGradient id="l" x1="55.246" y1="43.696" x2="55.177" y2="50.357" xlink:href="#e"/>
    <linearGradient id="m" x1="56.51" y1="53.244" x2="56.469" y2="57.183" xlink:href="#e"/>
    <linearGradient id="n" x1="63.469" y1="42.836" x2="63.411" y2="48.454" xlink:href="#e"/>
    <linearGradient id="o" x1="74.34" y1="35.818" x2="74.284" y2="41.218" xlink:href="#e"/>
    <linearGradient id="p" x1="64.381" y1="34.268" x2="64.336" y2="38.624" xlink:href="#e"/>
    <linearGradient id="q" x1="73.062" y1="80.283" x2="72.813" y2="104.406" xlink:href="#e"/>
    <linearGradient id="r" x1="69.053" y1="21.957" x2="68.978" y2="29.162" xlink:href="#e"/>
    <linearGradient id="s" x1="63.838" y1="101.571" x2="63.684" y2="116.414" xlink:href="#e"/>
    <linearGradient id="t" x1="81.854" y1="28.565" x2="81.824" y2="31.431" xlink:href="#e"/>
    <linearGradient id="u" x1="84.812" y1="35.291" x2="84.778" y2="38.601" xlink:href="#e"/>
    <linearGradient id="v" x1="94.774" y1="34.8" x2="94.722" y2="39.762" xlink:href="#e"/>
    <linearGradient id="w" x1="92.974" y1="26.295" x2="92.937" y2="29.911" xlink:href="#e"/>
    <linearGradient id="x" x1="78.838" y1="100.622" x2="78.582" y2="125.42" xlink:href="#e"/>
    <linearGradient id="y" x1="99.976" y1="34.344" x2="99.945" y2="37.309" xlink:href="#e"/>
    <linearGradient id="z" x1="101.633" y1="41.663" x2="101.586" y2="46.262" xlink:href="#e"/>
    <linearGradient id="aa" x1="102.8" y1="96.145" x2="102.527" y2="122.503" xlink:href="#e"/>
    <linearGradient id="ab" x1="119.818" y1="107.193" x2="119.721" y2="116.588" xlink:href="#e"/>
    <linearGradient id="ac" x1="128.53" y1="106.876" x2="128.495" y2="110.294" xlink:href="#e"/>
  </defs>
  <g id="c" data-name="Layer_4">
    <g>
      <path d="M145.233,74.806c0,9.898-2.22,19.296-6.209,27.757l-2.809-.061-2.731-.061c-4.601.284-15.551.071-15.551.071,0,0,.325-5.102,0-6.307-.323-1.204-2.657-4.18-3.952-4.18s-5.767,1.843-8.164,2.409c-2.397.568-10.949,3.472-10.949,2.764s-.13-8.361-.13-8.361c0,0,4.474-4.322,5.379-13.038.906-8.716.583-15.873.583-15.873,0,0,3.045-1.438,3.368-3.235.325-1.797,1.167-3.851,0-5.127-1.165-1.275,2.787-.092,2.787-4.58s-2.98-4.772-2.203-5.623c.777-.85,2.527-4.109,1.23-6.52-1.295-2.409-3.11-1.302-3.11-2.422s-2.85-8.703-9.459-9.411c-6.609-.708-10.302,0-10.302,0,0,0,.356-1.949-.389-2.764-.745-.815-7.062-3.33-14.254-.815-7.192,2.515-11.689,7.264-12.226,9.175-.538,1.914-.733-2.975-2.741-2.975s-7.785,3.825-9.563,9.211c-1.776,5.386-1.776,11.699-1.776,13.574s-.713-1.668-3.045-.465c-2.334,1.205-2.462,8.993-.907,11.689,1.555,2.696,3.637,5.558,4.6,6.612.963,1.054-.081,1.754.963,3.666,1.045,1.914,2.924,4.322,4.026,4.89,1.101.566-1.102,3.104,1.101,4.882,2.204,1.778,2.797,1.849,2.89,2.062.091.213,0,15.447,0,15.447,0,0-9.887-3.33-12.867-5.102-2.982-1.772-6.804,1.984-6.804,3.472v6.944s-17.947-.495-18.401,0c-.453.497-1.49.637-.972,1.701.004.008.009.018.013.029-4.505-8.89-7.031-18.877-7.031-29.435C5.627,37.673,36.879,7.572,75.431,7.572s69.803,30.101,69.803,67.234Z"/>
      <path d="M23.206,111.866s-3.305-4.182-3.37-4.464c0,0,2.722-.284,3.37.424.648.708,0,4.04,0,4.04Z"/>
      <path d="M32.86,121.29l-2.785-2.126s-2.009-1.701-2.139-2.125c-.128-.426.065-9.637,0-9.693h3.952l.972,13.945Z"/>
      <path d="M45.856,60.492c-.029.026-.06.044-.091.056-.463.534-.972,1.066-1.371,1.502-.972,1.063-2.754-5.137-3.37-5.81-.615-.673-.233-5.031,0-5.031.364,0,.692.032.994.097-.046-.168-.069-.261-.069-.261.212.142.417.284.615.423,0,0,.001,0,.003.002.729.286,1.348.81,2.104,1.609,5.433,4.598,2.257,6.497,1.185,7.414Z"/>
      <path d="M52.353,56.637c-.207.034-.418.053-.637.053-.121,0,.181-.037.637-.053Z"/>
      <path d="M55.279,38.101c-.226,1.049-5.597,12.464-8.409,13.803l-.212.789c-.009-.202-.006-.439.012-.708-.329.103-.617.047-.85-.208-2.17-2.373-2.073-8.22-1.36-13.251.713-5.031,8.552-10.771,8.552-10.771.088.097.177.224.264.376l.237-.874c-.031.134-.105.457-.214.916,1.183,2.117,2.22,8.814,1.98,9.929Z"/>
      <path d="M53.527,133.263s-.012-.003-.024-.01c-.009-.003-.018-.008-.03-.013-.751-.313-8.85-3.722-9.636-4.582l-.003-.003c-1.85-.928-3.393-1.752-3.977-2.193-1.878-1.417-2.655-9.566-3.175-16.015-.518-6.449,1.167-13.817,1.167-13.817,0,0,4.082-.708,3.693,3.33-.12,1.246-.055,2.928.125,4.832v.005c.065.673.143,1.373.232,2.093,0,.003.001.006.001.008,1.713,10.737,11.389,25.992,11.622,26.36.003.002.004.003.004.005Z"/>
      <path d="M99.956,50.752v5.431s-4.505-2.646-5.543-2.109c-1.036.537-3.586.741-3.656,2.109-.069,1.368,2.458,14.053,1.843,14.726-.617.673-.842,1.134-5.442,1.134s-4.212.213-3.694-2.338-2.56.886-2.267,1.204c.292.319.26,2.622,1.944,2.977,1.683.353,2.72-.071,3.11.353.388.426,2.843,2.26,2.455,2.686-.389.424,1.238.786-2.067,1.141-3.305.355-4.861-.284-6.026.355-1.165.637-2.203.992-2.203,1.772s.714,1.488,1.555,1.133c.842-.353,1.362-1.346,2.397-1.346s6.068-.599,6.615,0c.549.599,1.27,1.807,0,2.196-1.269.39-4.346-.071-4.671.39-.325.46-1.031,2.373.488,2.373s3.7.039,4.182.568c.463.505,1.843,2.927,1.14,4.037v.003c-.553,2.046-4.405,5.576-14.753,2.407-7.366-2.256-12.956-8.432-14.77-13.462-1.816-5.032-5.768-3.685-5.768-3.685,0,0-6.609-2.906-7.84-7.299-1.232-4.393,1.23-6.944,3.563-7.723,2.332-.779,3.758,1.843,3.758,1.843,0,0-2.138.106-3.271.106s-1.459,1.594-1.847,3.011c-.389,1.418,1.133,3.721,1.879,4.535.745.815,3.758,1.984,3.758,1.984v-3.19c0-1.062-.13-1.947.81-1.947s1.522,1.594,2.495,1.594,2.268.707,3.368-.499c.142-.155.335-.229.566-.236-.086-.616-.112-.86-.112-.86,0-.815-1.099-1.31-1.359-1.596-.261-.284-1.199-.426-1.199-1.312s1.91-1.45,2.558-2.16c.648-.708,2.136-2.054,2.396-3.967.261-1.914-1.232-2.906,0-3.401,1.232-.497,3.716-.779,4.644-2.48.929-1.701.54-4.89,1.254-4.89s6.09,1.82,7.84.663c1.75-1.158,3.148-4.89,3.744-4.89s4.03,1.638,5.197,1.638,3.575-2.12,4.017-1.638c.441.484,1.685,2.173,2.72,2.527,1.037.355,2.666.029,3.045.444.381.416.227,2.498.714,3.028.485.532,2.431,1.849,2.431,2.661Z"/>
      <path d="M60.333,43.84c0,.708-.195,1.772-2.073,4.784-1.879,3.011-7.064,4.782-7.971,4.782s1.037-4.18,3.176-6.518c2.138-2.339,6.867-3.048,6.867-3.048Z"/>
      <path d="M60.495,57.941c-.422,2.693-5.249-.319-5.799-.921-.347-.379-1.565-.411-2.341-.382.95-.155,1.792-.628,2.843-1.034,1.279-.497,1.766-1.63,3.256-2.197,1.49-.566,2.462,1.843,2.042,4.535Z"/>
      <path d="M66.294,48.624c0,2.231-8.164,3.224-5.119,1.665,3.045-1.559,2.85-7.37,2.85-7.37,2.657,1.276,2.269,3.472,2.269,5.705Z"/>
      <path d="M77.179,42.919c-4.407,2.551-8.023-1.734-7.452-1.63.389.071,1.199-.177,1.685-.708.487-.532,2.138-1.984,2.592-2.48.453-.497.713-2.197,1.49-2.197s6.09,4.464,1.685,7.015Z"/>
      <path d="M71.672,34.558c-.972,1.63-1.685,2.409-3.434,3.401-1.75.992-8.229,2.622-10.626,2.622s3.175-4.535,5.793-5.599c2.617-1.063,8.267-.424,8.267-.424Z"/>
      <path d="M92.081,105.417c-.323,2.409-5.895,7.299-8.422,8.29-2.527.992-9.495,1.925-10.87,1.925-.803,0-1.226-1.5-1.438-3.115-2.403-.145-5.445-.737-7.195-1.076-2.915-.566-8.841-4.535-10.626-7.299,2.334-1.843,2.613-7.794,2.917-10.558.304-2.762-.304-12.683-.304-12.683,0,0,.341.544.887,1.412-.127-1.054-.195-1.865-.195-1.865.195.24,6.739,11.153,13.801,13.704,7.062,2.551,11.274,3.543,12.829,3.543s8.942,5.315,8.617,7.723Z"/>
      <path d="M79.178,23.392c-.081.278-.326.6-.692.95-2.11,2.023-8.236,4.973-10.184,5.752-1.199.481-3.104,1.126-4.902,1.615-1.257.342-2.461.607-3.336.686-.646.058-1.112.015-1.286-.176,0,0,4.277-6.731,8.422-8.148,4.147-1.418,9.007-2.693,11.599-1.418.363.179.471.432.379.739Z"/>
      <path d="M72.19,122.778c-11.597,3.33-23.616-8.538-25.204-10.274s-1.037-10.913-1.037-10.913c0,0,5.507,6.023,7.517,8.929,2.008,2.906,10.432,5.952,16.392,6.52,5.962.566,11.566-.177,11.566-.177,0,0,2.365,2.586-9.234,5.916Z"/>
      <path d="M87.499,31.923c-.506.157-1.167.3-1.975.431-.834.136-1.825.255-2.967.361-3.175.292-5.587-.865-6.777-1.612-.536-.334-.823-.586-.823-.586.015-.01.029-.018.044-.027,2.74-1.675,4.265-1.886,6.83-1.886,2.579,0,5.942,1.312,6.72,2.162.398.436.024.823-1.052,1.157Z"/>
      <path d="M88.705,39.163c-.612.67-2.514,1.391-3.911.731-1.396-.66-3.598-2.147-4.181-3.99-.086-.268,5.507.355,6.608,0,1.102-.353,1.484-.771,1.484-.353s.612,2.944,0,3.612Z"/>
      <path d="M97.2,41.715c0,1.381-3.012-1.383-3.952-2.41-.925-1.012-.971-4.359-.972-4.463,0,0,2.973,1.851,3.952,2.923.981,1.071.972,2.567.972,3.95Z"/>
      <path d="M95.891,31.209c-1.562-.376-3.265-.899-4.134-1.186-.235-.077-.478-.182-.727-.307-.081-.04-.164-.084-.246-.131-.058-.031-.115-.063-.174-.097-.058-.032-.115-.066-.174-.102-.003-.002-.006-.003-.01-.006-.035-.021-.072-.044-.108-.066-.035-.021-.072-.044-.108-.068-.065-.04-.131-.082-.196-.126-.077-.05-.155-.103-.232-.157-.077-.052-.153-.106-.232-.161-.034-.024-.069-.048-.103-.074-.035-.024-.069-.05-.105-.076-.165-.121-.326-.244-.484-.368-.053-.04-.106-.081-.158-.123-.103-.084-.205-.166-.304-.247,0-.002-.002-.002-.002-.002h-.001c-1.011-.833-1.756-1.576-1.756-1.576h5.637c2.527,0,4.277,2.267,6.544,4.393,1.347,1.263-.643,1.026-2.928.478Z"/>
      <path d="M99.956,101.59c0,7.936-.229,9.637-5.283,20.903-5.054,11.268-14.059,14.314-14.059,14.314-2.276.118-4.486.147-6.587.098-7.946-.176-14.316-1.436-16.672-3.004,11.211-1.275,20.407-8.716,27.989-14.738,7.58-6.023,13.217-17.998,13.217-17.998,0,0,.325.353,1.146.415.078.006.161.01.249.01Z"/>
      <path d="M102.384,38.467c0,.899-2.366-.899-3.305-1.926-.94-1.026-1.555-2.173-1.555-2.173,0,0,1.165-.094,3.11.473,1.943.568,1.75,2.728,1.75,3.627Z"/>
      <path d="M102.999,47.844c-.357,2.054-1.88-2.055-2.495-2.728-.615-.674-.407-3.459,0-3.401,2.008.282,2.85,4.074,2.495,6.129Z"/>
      <path d="M108.545,128.276c-1.282.697-2.731,1.399-4.225,2.068-6.251,2.799-13.32,5.04-12.459,4.096,1.07-1.168,9.007-9.637,10.173-12.541,1.165-2.906,4.988-14.951,2.591-21.825-.112-.324,1.592-1.299,3.445-2.133,1.952-.879,4.069-1.604,4.396-1.246.637.697,2.72,27.967-3.921,31.579Z"/>
      <path d="M122.08,107.345v10.331s-1.193.857-2.383,1.692c-1.127.794-2.253,1.567-2.347,1.567-.195,0,.453-13.59.453-13.59h4.277Z"/>
      <polygon points="130.309 107.345 126.745 111.866 126.745 106.905 130.309 107.345"/>
      <path d="M145.582,74.705c0,9.898-2.22,19.296-6.209,27.757l-2.809-.061-2.731-.061c-4.601.284-15.551.071-15.551.071,0,0,.325-5.102,0-6.307-.323-1.204-2.657-4.18-3.952-4.18s-5.767,1.843-8.164,2.409c-2.397.568-10.949,3.472-10.949,2.764s-.13-8.361-.13-8.361c0,0,4.474-4.322,5.379-13.038.906-8.716.583-15.873.583-15.873,0,0,3.045-1.438,3.368-3.235.325-1.797,1.167-3.851,0-5.127-1.165-1.275,2.787-.092,2.787-4.58s-2.98-4.772-2.203-5.623c.777-.85,2.527-4.109,1.23-6.52-1.295-2.409-3.11-1.302-3.11-2.422s-2.85-8.703-9.459-9.411c-6.609-.708-10.302,0-10.302,0,0,0,.356-1.949-.389-2.764-.745-.815-7.062-3.33-14.254-.815-7.192,2.515-11.689,7.264-12.226,9.175-.538,1.914-.733-2.975-2.741-2.975s-7.785,3.825-9.563,9.211c-1.776,5.386-1.776,11.699-1.776,13.574s-.713-1.668-3.045-.465c-2.334,1.205-2.462,8.993-.907,11.689,1.555,2.696,3.637,5.558,4.6,6.612.963,1.054-.081,1.754.963,3.666,1.045,1.914,2.924,4.322,4.026,4.89,1.101.566-1.102,3.104,1.101,4.882,2.204,1.778,2.797,1.849,2.89,2.062.091.213,0,15.447,0,15.447,0,0-9.887-3.33-12.867-5.102-2.982-1.772-6.804,1.984-6.804,3.472v6.944s-17.947-.495-18.401,0c-.453.497-1.49.637-.972,1.701.004.008.009.018.013.029-4.505-8.89-7.031-18.877-7.031-29.435C5.976,37.572,37.228,7.471,75.78,7.471s69.803,30.101,69.803,67.234Z" style="fill: url(#d);"/>
      <path d="M23.206,111.866s-3.305-4.182-3.37-4.464c0,0,2.722-.284,3.37.424.648.708,0,4.04,0,4.04Z" style="fill: url(#e);"/>
      <path d="M32.86,121.29l-2.785-2.126s-2.009-1.701-2.139-2.125c-.128-.426.065-9.637,0-9.693h3.952l.972,13.945Z" style="fill: url(#f);"/>
      <path d="M45.856,60.492c-.029.026-.06.044-.091.056-.463.534-.972,1.066-1.371,1.502-.972,1.063-2.754-5.137-3.37-5.81-.615-.673-.233-5.031,0-5.031.364,0,.692.032.994.097-.046-.168-.069-.261-.069-.261.212.142.417.284.615.423,0,0,.001,0,.003.002.729.286,1.348.81,2.104,1.609,5.433,4.598,2.257,6.497,1.185,7.414Z" style="fill: url(#g);"/>
      <path d="M52.353,56.637c-.207.034-.418.053-.637.053-.121,0,.181-.037.637-.053Z" style="fill: url(#h);"/>
      <path d="M55.279,38.101c-.226,1.049-5.597,12.464-8.409,13.803l-.212.789c-.009-.202-.006-.439.012-.708-.329.103-.617.047-.85-.208-2.17-2.373-2.073-8.22-1.36-13.251.713-5.031,8.552-10.771,8.552-10.771.088.097.177.224.264.376l.237-.874c-.031.134-.105.457-.214.916,1.183,2.117,2.22,8.814,1.98,9.929Z" style="fill: url(#i);"/>
      <path d="M53.527,133.263s-.012-.003-.024-.01c-.009-.003-.018-.008-.03-.013-.751-.313-8.85-3.722-9.636-4.582l-.003-.003c-1.85-.928-3.393-1.752-3.977-2.193-1.878-1.417-2.655-9.566-3.175-16.015-.518-6.449,1.167-13.817,1.167-13.817,0,0,4.082-.708,3.693,3.33-.12,1.246-.055,2.928.125,4.832v.005c.065.673.143,1.373.232,2.093,0,.003.001.006.001.008,1.713,10.737,11.389,25.992,11.622,26.36.003.002.004.003.004.005Z" style="fill: url(#j);"/>
      <path d="M99.956,50.752v5.431s-4.505-2.646-5.543-2.109c-1.036.537-3.586.741-3.656,2.109-.069,1.368,2.458,14.053,1.843,14.726-.617.673-.842,1.134-5.442,1.134s-4.212.213-3.694-2.338-2.56.886-2.267,1.204c.292.319.26,2.622,1.944,2.977,1.683.353,2.72-.071,3.11.353.388.426,2.843,2.26,2.455,2.686-.389.424,1.238.786-2.067,1.141-3.305.355-4.861-.284-6.026.355-1.165.637-2.203.992-2.203,1.772s.714,1.488,1.555,1.133c.842-.353,1.362-1.346,2.397-1.346s6.068-.599,6.615,0c.549.599,1.27,1.807,0,2.196-1.269.39-4.346-.071-4.671.39-.325.46-1.031,2.373.488,2.373s3.7.039,4.182.568c.463.505,1.843,2.927,1.14,4.037v.003c-.553,2.046-4.405,5.576-14.753,2.407-7.366-2.256-12.956-8.432-14.77-13.462-1.816-5.032-5.768-3.685-5.768-3.685,0,0-6.609-2.906-7.84-7.299-1.232-4.393,1.23-6.944,3.563-7.723,2.332-.779,3.758,1.843,3.758,1.843,0,0-2.138.106-3.271.106s-1.459,1.594-1.847,3.011c-.389,1.418,1.133,3.721,1.879,4.535.745.815,3.758,1.984,3.758,1.984v-3.19c0-1.062-.13-1.947.81-1.947s1.522,1.594,2.495,1.594,2.268.707,3.368-.499c.142-.155.335-.229.566-.236-.086-.616-.112-.86-.112-.86,0-.815-1.099-1.31-1.359-1.596-.261-.284-1.199-.426-1.199-1.312s1.91-1.45,2.558-2.16c.648-.708,2.136-2.054,2.396-3.967.261-1.914-1.232-2.906,0-3.401,1.232-.497,3.716-.779,4.644-2.48.929-1.701.54-4.89,1.254-4.89s6.09,1.82,7.84.663c1.75-1.158,3.148-4.89,3.744-4.89s4.03,1.638,5.197,1.638,3.575-2.12,4.017-1.638c.441.484,1.685,2.173,2.72,2.527,1.037.355,2.666.029,3.045.444.381.416.227,2.498.714,3.028.485.532,2.431,1.849,2.431,2.661Z" style="fill: url(#k);"/>
      <path d="M60.333,43.84c0,.708-.195,1.772-2.073,4.784-1.879,3.011-7.064,4.782-7.971,4.782s1.037-4.18,3.176-6.518c2.138-2.339,6.867-3.048,6.867-3.048Z" style="fill: url(#l);"/>
      <path d="M60.495,57.941c-.422,2.693-5.249-.319-5.799-.921-.347-.379-1.565-.411-2.341-.382.95-.155,1.792-.628,2.843-1.034,1.279-.497,1.766-1.63,3.256-2.197,1.49-.566,2.462,1.843,2.042,4.535Z" style="fill: url(#m);"/>
      <path d="M66.294,48.624c0,2.231-8.164,3.224-5.119,1.665,3.045-1.559,2.85-7.37,2.85-7.37,2.657,1.276,2.269,3.472,2.269,5.705Z" style="fill: url(#n);"/>
      <path d="M77.179,42.919c-4.407,2.551-8.023-1.734-7.452-1.63.389.071,1.199-.177,1.685-.708.487-.532,2.138-1.984,2.592-2.48.453-.497.713-2.197,1.49-2.197s6.09,4.464,1.685,7.015Z" style="fill: url(#o);"/>
      <path d="M71.672,34.558c-.972,1.63-1.685,2.409-3.434,3.401-1.75.992-8.229,2.622-10.626,2.622s3.175-4.535,5.793-5.599c2.617-1.063,8.267-.424,8.267-.424Z" style="fill: url(#p);"/>
      <path d="M92.081,105.417c-.323,2.409-5.895,7.299-8.422,8.29-2.527.992-9.495,1.925-10.87,1.925-.803,0-1.226-1.5-1.438-3.115-2.403-.145-5.445-.737-7.195-1.076-2.915-.566-8.841-4.535-10.626-7.299,2.334-1.843,2.613-7.794,2.917-10.558.304-2.762-.304-12.683-.304-12.683,0,0,.341.544.887,1.412-.127-1.054-.195-1.865-.195-1.865.195.24,6.739,11.153,13.801,13.704,7.062,2.551,11.274,3.543,12.829,3.543s8.942,5.315,8.617,7.723Z" style="fill: url(#q);"/>
      <path d="M79.178,23.392c-.081.278-.326.6-.692.95-2.11,2.023-8.236,4.973-10.184,5.752-1.199.481-3.104,1.126-4.902,1.615-1.257.342-2.461.607-3.336.686-.646.058-1.112.015-1.286-.176,0,0,4.277-6.731,8.422-8.148,4.147-1.418,9.007-2.693,11.599-1.418.363.179.471.432.379.739Z" style="fill: url(#r);"/>
      <path d="M72.19,122.778c-11.597,3.33-23.616-8.538-25.204-10.274s-1.037-10.913-1.037-10.913c0,0,5.507,6.023,7.517,8.929,2.008,2.906,10.432,5.952,16.392,6.52,5.962.566,11.566-.177,11.566-.177,0,0,2.365,2.586-9.234,5.916Z" style="fill: url(#s);"/>
      <path d="M87.499,31.923c-.506.157-1.167.3-1.975.431-.834.136-1.825.255-2.967.361-3.175.292-5.587-.865-6.777-1.612-.536-.334-.823-.586-.823-.586.015-.01.029-.018.044-.027,2.74-1.675,4.265-1.886,6.83-1.886,2.579,0,5.942,1.312,6.72,2.162.398.436.024.823-1.052,1.157Z" style="fill: url(#t);"/>
      <path d="M88.705,39.163c-.612.67-2.514,1.391-3.911.731-1.396-.66-3.598-2.147-4.181-3.99-.086-.268,5.507.355,6.608,0,1.102-.353,1.484-.771,1.484-.353s.612,2.944,0,3.612Z" style="fill: url(#u);"/>
      <path d="M97.2,41.715c0,1.381-3.012-1.383-3.952-2.41-.925-1.012-.971-4.359-.972-4.463,0,0,2.973,1.851,3.952,2.923.981,1.071.972,2.567.972,3.95Z" style="fill: url(#v);"/>
      <path d="M95.891,31.209c-1.562-.376-3.265-.899-4.134-1.186-.235-.077-.478-.182-.727-.307-.081-.04-.164-.084-.246-.131-.058-.031-.115-.063-.174-.097-.058-.032-.115-.066-.174-.102-.003-.002-.006-.003-.01-.006-.035-.021-.072-.044-.108-.066-.035-.021-.072-.044-.108-.068-.065-.04-.131-.082-.196-.126-.077-.05-.155-.103-.232-.157-.077-.052-.153-.106-.232-.161-.034-.024-.069-.048-.103-.074-.035-.024-.069-.05-.105-.076-.165-.121-.326-.244-.484-.368-.053-.04-.106-.081-.158-.123-.103-.084-.205-.166-.304-.247,0-.002-.002-.002-.002-.002h-.001c-1.011-.833-1.756-1.576-1.756-1.576h5.637c2.527,0,4.277,2.267,6.544,4.393,1.347,1.263-.643,1.026-2.928.478Z" style="fill: url(#w);"/>
      <path d="M99.956,101.59c0,7.936-.229,9.637-5.283,20.903-5.054,11.268-14.059,14.314-14.059,14.314-2.276.118-4.486.147-6.587.098-7.946-.176-14.316-1.436-16.672-3.004,11.211-1.275,20.407-8.716,27.989-14.738,7.58-6.023,13.217-17.998,13.217-17.998,0,0,.325.353,1.146.415.078.006.161.01.249.01Z" style="fill: url(#x);"/>
      <path d="M102.384,38.467c0,.899-2.366-.899-3.305-1.926-.94-1.026-1.555-2.173-1.555-2.173,0,0,1.165-.094,3.11.473,1.943.568,1.75,2.728,1.75,3.627Z" style="fill: url(#y);"/>
      <path d="M102.999,47.844c-.357,2.054-1.88-2.055-2.495-2.728-.615-.674-.407-3.459,0-3.401,2.008.282,2.85,4.074,2.495,6.129Z" style="fill: url(#z);"/>
      <path d="M108.545,128.276c-1.282.697-2.731,1.399-4.225,2.068-6.251,2.799-13.32,5.04-12.459,4.096,1.07-1.168,9.007-9.637,10.173-12.541,1.165-2.906,4.988-14.951,2.591-21.825-.112-.324,1.592-1.299,3.445-2.133,1.952-.879,4.069-1.604,4.396-1.246.637.697,2.72,27.967-3.921,31.579Z" style="fill: url(#aa);"/>
      <path d="M122.08,107.345v10.331s-1.193.857-2.383,1.692c-1.127.794-2.253,1.567-2.347,1.567-.195,0,.453-13.59.453-13.59h4.277Z" style="fill: url(#ab);"/>
      <polygon points="130.309 107.345 126.745 111.866 126.745 106.905 130.309 107.345" style="fill: url(#ac);"/>
      <path d="M133.484,102.441l2.731.061c-.658-.102-1.548-.134-2.731-.061ZM23.206,107.826c-.648-.708-3.37-.424-3.37-.424.065.282,3.37,4.464,3.37,4.464,0,0,.648-3.332,0-4.04ZM31.888,107.345h-3.952c.065.056-.128,9.267,0,9.693.13.424,2.139,2.125,2.139,2.125l2.785,2.126-.972-13.945ZM44.671,53.078c-.755-.799-1.375-1.323-2.104-1.609-.001-.002-.003-.002-.003-.002-.198-.139-.403-.281-.615-.423,0,0,.024.094.069.261-.302-.065-.63-.097-.994-.097-.233,0-.615,4.358,0,5.031.615.673,2.397,6.873,3.37,5.81.398-.436.907-.968,1.371-1.502.031-.013.062-.031.091-.056,1.073-.916,4.249-2.815-1.185-7.414ZM46.669,51.984c-.018.269-.021.507-.012.708l.212-.789c-.068.034-.136.06-.201.081ZM51.716,56.691c.22,0,.431-.019.637-.053-.456.016-.758.053-.637.053ZM53.275,28.13c-.087-.152-.176-.279-.264-.376,0,0-7.84,5.741-8.552,10.771-.713,5.031-.81,10.878,1.36,13.251.233.255.521.311.85.208.181-3.117,1.947-10.408,3.393-13.274.389-.774.8-1.875,1.195-3.093.864-2.654,1.663-5.862,2.042-7.446.109-.46.183-.782.214-.916l-.237.874ZM53.523,133.258c-.233-.368-9.909-15.623-11.622-26.36,0-.002-.001-.005-.001-.008-.088-.72-.167-1.42-.232-2.093v-.005c-.18-1.904-.245-3.587-.125-4.832.389-4.038-3.693-3.33-3.693-3.33,0,0-1.685,7.368-1.167,13.817.519,6.449,1.297,14.598,3.175,16.015.584.44,2.127,1.265,3.977,2.193l.003.003c.786.86,8.886,4.269,9.636,4.582.012.005.021.01.03.013.012.006.021.01.024.01,0-.002-.001-.003-.004-.005ZM53.465,46.888c-2.139,2.338-4.082,6.518-3.176,6.518s6.091-1.772,7.971-4.782c1.878-3.012,2.073-4.075,2.073-4.784,0,0-4.73.708-6.867,3.048ZM58.453,53.406c-1.49.568-1.977,1.701-3.256,2.197-1.05.407-1.893.879-2.843,1.034.776-.029,1.995.003,2.341.382.55.602,5.377,3.614,5.799.921.42-2.693-.552-5.102-2.042-4.535ZM64.48,126.887c-.195,0-6.091-1.204-7.776-1.912-1.683-.71-6.478-3.685-6.478-3.685.193.779,4.275,7.368,4.988,7.368s9.461-1.772,9.266-1.772ZM64.025,42.919s.195,5.811-2.85,7.37c-3.045,1.559,5.119.566,5.119-1.665s.388-4.429-2.269-5.705ZM75.494,35.904c-.777,0-1.037,1.701-1.49,2.197-.454.495-2.105,1.947-2.592,2.48-.485.531-1.295.779-1.685.708-.571-.105,3.045,4.18,7.452,1.63,4.405-2.551-.907-7.015-1.685-7.015ZM63.404,34.982c-2.619,1.063-8.191,5.599-5.793,5.599s8.877-1.63,10.626-2.622c1.75-.992,2.462-1.772,3.434-3.401,0,0-5.65-.639-8.267.424ZM78.799,22.653c-2.592-1.275-7.452,0-11.599,1.418-4.145,1.417-8.422,8.148-8.422,8.148.174.19.64.234,1.286.176,1.754-1.528,4.396-3.559,7.087-4.64,4.005-1.607,8.834-3.872,12.026-4.363.091-.307-.016-.56-.379-.739ZM81.423,116.861s-5.605.744-11.566.177c-5.96-.568-14.384-3.614-16.392-6.52-2.009-2.906-7.517-8.929-7.517-8.929,0,0-.55,9.177,1.037,10.913s13.606,13.604,25.204,10.274c11.599-3.33,9.234-5.916,9.234-5.916ZM88.55,30.766c-.777-.85-4.141-2.162-6.72-2.162-2.565,0-4.091.211-6.83,1.886,2.493-.205,5.485-.463,6.621-.463,1.199,0,4.118.949,5.878,1.896,1.075-.334,1.45-.721,1.052-1.157ZM88.705,35.55c0-.418-.382,0-1.484.353-1.101.355-6.693-.268-6.608,0,.583,1.843,2.785,3.33,4.181,3.99,1.397.66,3.299-.061,3.911-.731.612-.668,0-3.196,0-3.612ZM83.464,97.694c-1.555,0-5.767-.992-12.829-3.543-7.062-2.551-13.606-13.464-13.801-13.704,0,0,.068.812.195,1.865-.546-.868-.887-1.412-.887-1.412,0,0,.608,9.921.304,12.683-.304,2.764-.583,8.716-2.917,10.558,1.785,2.764,7.711,6.733,10.626,7.299,1.75.339,4.792.931,7.195,1.076.212,1.615.636,3.115,1.438,3.115,1.375,0,8.343-.933,10.87-1.925,2.527-.991,8.099-5.881,8.422-8.29.325-2.409-7.062-7.723-8.617-7.723ZM96.228,37.765c-.98-1.073-3.952-2.923-3.952-2.923.001.103.047,3.451.972,4.463.94,1.028,3.952,3.792,3.952,2.41s.009-2.878-.972-3.95ZM98.82,30.731c-2.268-2.126-4.017-4.393-6.544-4.393h-5.637s.745.744,1.756,1.576h.001c1.958.326,5.084,1.128,6.342,2.114.543.426.909.829,1.154,1.181,2.285.549,4.275.786,2.928-.478ZM98.56,101.166s-5.637,11.975-13.217,17.998c-7.581,6.023-16.778,13.464-27.989,14.738,2.356,1.568,8.726,2.828,16.672,3.004,4.622-3.775,12.059-12.247,18.639-21.274,4.901-6.725,6.516-11.487,7.041-14.051-.822-.061-1.146-.415-1.146-.415ZM97.524,48.091c-.487-.531-.333-2.612-.714-3.028-.379-.415-2.008-.089-3.045-.444-1.036-.353-2.279-2.043-2.72-2.527-.443-.482-2.852,1.638-4.017,1.638s-4.601-1.638-5.197-1.638-1.995,3.732-3.744,4.89c-1.75,1.157-7.127-.663-7.84-.663s-.325,3.19-1.254,4.89c-.928,1.701-3.412,1.983-4.644,2.48-1.232.495.261,1.488,0,3.401-.26,1.914-1.748,3.259-2.396,3.967-.648.71-2.558,1.276-2.558,2.16s.938,1.028,1.199,1.312c.26.286,1.359.781,1.359,1.596,0,0,.027.244.112.86-.232.006-.425.081-.566.236-1.101,1.205-2.397.499-3.368.499s-1.555-1.594-2.495-1.594-.81.886-.81,1.947v3.19s-3.012-1.17-3.758-1.984c-.746-.815-2.269-3.117-1.879-4.535.388-1.417.713-3.011,1.847-3.011s3.271-.106,3.271-.106c0,0-1.425-2.622-3.758-1.843-2.332.779-4.795,3.33-3.563,7.723,1.23,4.393,7.84,7.299,7.84,7.299,0,0,3.952-1.347,5.768,3.685,1.815,5.031,7.404,11.207,14.77,13.462,10.348,3.169,14.2-.361,14.753-2.407v-.003c.702-1.11-.677-3.532-1.14-4.037-.482-.529-2.661-.568-4.182-.568s-.813-1.914-.488-2.373c.325-.461,3.402,0,4.671-.39,1.27-.389.549-1.597,0-2.196-.547-.599-5.578,0-6.615,0s-1.555.992-2.397,1.346c-.841.355-1.555-.353-1.555-1.133s1.037-1.134,2.203-1.772c1.165-.639,2.722,0,6.026-.355,3.305-.355,1.677-.716,2.067-1.141.388-.426-2.067-2.26-2.455-2.686-.389-.424-1.427,0-3.11-.353-1.685-.355-1.652-2.657-1.944-2.977-.292-.318,2.785-3.754,2.267-1.204s-.907,2.338,3.694,2.338,4.826-.461,5.442-1.134c.615-.673-1.912-13.357-1.843-14.726.069-1.368,2.62-1.571,3.656-2.109,1.037-.537,5.543,2.109,5.543,2.109v-5.431c0-.812-1.946-2.128-2.431-2.661ZM100.634,34.84c-1.944-.566-3.11-.473-3.11-.473,0,0,.615,1.147,1.555,2.173.938,1.028,3.305,2.825,3.305,1.926s.193-3.059-1.75-3.627ZM100.505,41.715c-.407-.058-.615,2.727,0,3.401.615.673,2.138,4.782,2.495,2.728.356-2.055-.487-5.847-2.495-6.129ZM108.07,97.942c-1.853.834-3.557,1.809-3.445,2.133,2.397,6.873-1.425,18.919-2.591,21.825-1.167,2.904-9.104,11.373-10.173,12.541-.862.944,6.208-1.297,12.459-4.096,6.327-11.865,4.603-27.162,3.75-32.402ZM117.804,107.345s-.648,13.59-.453,13.59c.094,0,1.22-.773,2.347-1.567v-12.023h-1.894ZM126.745,106.905v4.961l3.564-4.521-3.564-.44Z"/>
      <path d="M55.279,38.101c-.226,1.049-5.597,12.464-8.409,13.803-.068.034-.136.06-.201.081.181-3.117,1.947-10.408,3.393-13.274.389-.774.8-1.875,1.195-3.093.864-2.654,1.663-5.862,2.042-7.446,1.183,2.117,2.22,8.814,1.98,9.929Z" style="fill: aqua;"/>
      <path d="M53.299,28.172c-.379,1.584-1.177,4.792-2.042,7.446-.395,1.218-.806,2.318-1.195,3.093-1.446,2.865-3.212,10.156-3.393,13.274-.329.103-.617.047-.85-.208-2.17-2.373-2.073-8.22-1.36-13.251.713-5.031,8.552-10.771,8.552-10.771.088.097.177.224.264.376.009.015.016.027.024.042Z" style="fill: #fff;"/>
      <path d="M79.178,23.392c-3.192.49-8.021,2.756-12.026,4.363-2.691,1.081-5.333,3.112-7.087,4.64-.646.058-1.112.015-1.286-.176,0,0,4.277-6.731,8.422-8.148,4.147-1.418,9.007-2.693,11.599-1.418.363.179.471.432.379.739Z" style="fill: #fff;"/>
      <path d="M46.986,58.507c0,.502-.562,1.273-1.221,2.041-.463.534-.972,1.066-1.371,1.502-.972,1.063-2.754-5.137-3.37-5.81-.615-.673-.233-5.031,0-5.031.364,0,.692.032.994.097.19.04.372.094.546.161,0,0,.001,0,.003.002.729.286,1.348.81,2.104,1.609.099.103.201.213.305.328,1.393,1.523,2.009,4.251,2.009,5.102Z" style="fill: #fff;"/>
      <path d="M60.333,43.84c0,.708-.195,1.772-2.073,4.784-1.879,3.011-7.064,4.782-7.971,4.782s1.037-4.18,3.176-6.518c2.138-2.339,6.867-3.048,6.867-3.048Z" style="fill: #fff;"/>
      <path d="M66.294,48.624c0,2.231-8.164,3.224-5.119,1.665,3.045-1.559,2.85-7.37,2.85-7.37,2.657,1.276,2.269,3.472,2.269,5.705Z" style="fill: aqua;"/>
      <path d="M71.672,34.558c-.972,1.63-1.685,2.409-3.434,3.401-1.75.992-8.229,2.622-10.626,2.622s3.175-4.535,5.793-5.599c2.617-1.063,8.267-.424,8.267-.424Z" style="fill: #fff;"/>
      <path d="M52.353,56.637c-.207.034-.418.053-.637.053-.121,0,.181-.037.637-.053Z" style="fill: aqua;"/>
      <path d="M60.495,57.941c-.422,2.693-5.249-.319-5.799-.921-.347-.379-1.565-.411-2.341-.382.95-.155,1.792-.628,2.843-1.034,1.279-.497,1.766-1.63,3.256-2.197,1.49-.566,2.462,1.843,2.042,4.535Z" style="fill: aqua;"/>
      <path d="M77.179,42.919c-4.407,2.551-8.023-1.734-7.452-1.63.389.071,1.199-.177,1.685-.708.487-.532,2.138-1.984,2.592-2.48.453-.497.713-2.197,1.49-2.197s6.09,4.464,1.685,7.015Z" style="fill: aqua;"/>
      <path d="M87.499,31.923c-1.76-.947-4.678-1.896-5.878-1.896-1.136,0-4.128.258-6.621.463,2.74-1.675,4.265-1.886,6.83-1.886,2.579,0,5.942,1.312,6.72,2.162.398.436.024.823-1.052,1.157Z" style="fill: #fff;"/>
      <path d="M88.705,39.163c-.612.67-2.514,1.391-3.911.731-1.396-.66-3.598-2.147-4.181-3.99-.086-.268,5.507.355,6.608,0,1.102-.353,1.484-.771,1.484-.353s.612,2.944,0,3.612Z" style="fill: aqua;"/>
      <path d="M97.2,41.715c0,1.381-3.012-1.383-3.952-2.41-.925-1.012-.971-4.359-.972-4.463,0,0,2.973,1.851,3.952,2.923.981,1.071.972,2.567.972,3.95Z" style="fill: aqua;"/>
      <path d="M102.384,38.467c0,.899-2.366-.899-3.305-1.926-.94-1.026-1.555-2.173-1.555-2.173,0,0,1.165-.094,3.11.473,1.943.568,1.75,2.728,1.75,3.627Z" style="fill: aqua;"/>
      <path d="M95.891,31.209c-.245-.352-.611-.755-1.154-1.181-1.258-.986-4.385-1.788-6.342-2.114h-.001c-1.011-.833-1.756-1.576-1.756-1.576h5.637c2.527,0,4.277,2.267,6.544,4.393,1.347,1.263-.643,1.026-2.928.478Z" style="fill: #fff;"/>
      <path d="M102.999,47.844c-.357,2.054-1.88-2.055-2.495-2.728-.615-.674-.407-3.459,0-3.401,2.008.282,2.85,4.074,2.495,6.129Z" style="fill: aqua;"/>
      <path d="M90.117,89.543v.003c-.553,2.046-4.405,5.576-14.753,2.407-7.366-2.256-12.956-8.432-14.77-13.462-1.816-5.032-5.768-3.685-5.768-3.685v-6.733c0-1.062-.13-1.947.81-1.947s1.522,1.594,2.495,1.594,2.268.707,3.368-.499c.142-.155.335-.229.566-.236,1.576-.053,4.877,3.028,4.877,5.623,0,2.977.373,11.266,7.345,14.598,3.598,1.717,5.667,2.965,7.77,3.254.565.076,1.132.084,1.732.015.001.002.003.002.004,0,1.496-.176,3.195-.839,5.566-2.136.657-.218.983.368.757,1.204Z" style="fill: aqua;"/>
      <path d="M99.956,50.752v5.431s-4.505-2.646-5.543-2.109c-1.036.537-3.586.741-3.656,2.109-.069,1.368,2.458,14.053,1.843,14.726-.617.673-.842,1.134-5.442,1.134s-4.212.213-3.694-2.338-2.56.886-2.267,1.204c.292.319.26,2.622,1.944,2.977,1.683.353,2.72-.071,3.11.353.388.426,2.843,2.26,2.455,2.686-.389.424,1.238.786-2.067,1.141-3.305.355-4.861-.284-6.026.355-1.165.637-2.203.992-2.203,1.772s.714,1.488,1.555,1.133c.842-.353,1.362-1.346,2.397-1.346s6.068-.599,6.615,0c.549.599,1.27,1.807,0,2.196-1.269.39-4.346-.071-4.671.39-.325.46-1.031,2.373.488,2.373s3.7.039,4.182.568c.463.505,1.843,2.927,1.14,4.037v.003c-.032.05-.069.097-.109.14-.302.331-2.838.753-6.214.789-.001.002-.003.002-.004,0-.556.006-1.135.002-1.732-.015-7.049-.207-16.411-2.197-17.709-9.561-1.483-8.424-2.071-12.359-2.284-13.914-.086-.616-.112-.86-.112-.86,0-.815-1.099-1.31-1.359-1.596-.261-.284-1.199-.426-1.199-1.312s1.91-1.45,2.558-2.16c.648-.708,2.136-2.054,2.396-3.967.261-1.914-1.232-2.906,0-3.401,1.232-.497,3.716-.779,4.644-2.48.929-1.701.54-4.89,1.254-4.89s6.09,1.82,7.84.663c1.75-1.158,3.148-4.89,3.744-4.89s4.03,1.638,5.197,1.638,3.575-2.12,4.017-1.638c.441.484,1.685,2.173,2.72,2.527,1.037.355,2.666.029,3.045.444.381.416.227,2.498.714,3.028.485.532,2.431,1.849,2.431,2.661Z" style="fill: #fff;"/>
      <path d="M68.993,61.201s1.602-5.957,5.963-6.521c4.361-.565,7.568-.529,8.637.64s1.231,4.393-.842,5.881c-2.073,1.488-4.73,2.622-6.479,1.913s-2.561-1.842-3.484-1.842-2.532.567-3.12.567.405-.638-.675-.638Z"/>
      <path d="M23.206,111.866s-3.305-4.182-3.37-4.464c0,0,2.722-.284,3.37.424.648.708,0,4.04,0,4.04Z" style="fill: #fff;"/>
      <path d="M30.075,107.345v11.818s-2.009-1.701-2.139-2.125c-.128-.426.065-9.637,0-9.693h2.139Z" style="fill: #fff;"/>
      <polygon points="30.075 119.164 30.075 119.159 29.75 107.345 31.888 107.345 32.86 121.29 30.075 119.164" style="fill: aqua; stroke: #000; stroke-miterlimit: 10; stroke-width: .154px;"/>
      <path d="M53.527,133.263s-.012-.003-.024-.01c-.009-.003-.018-.008-.03-.013-.583-.268-5.777-2.651-9.639-4.585-1.85-.928-3.393-1.752-3.977-2.193-1.878-1.417-2.655-9.566-3.175-16.015-.518-6.449,1.167-13.817,1.167-13.817,0,0,4.082-.708,3.693,3.33-.12,1.246-.055,2.928.125,4.832v.005c.065.673.143,1.373.232,2.093,0,.003.001.006.001.008.479,3.843,1.281,8.204,1.937,11.628,1.112,5.791,9.427,14.463,9.685,14.732.003.002.004.003.004.005Z" style="fill: #fff;"/>
      <path d="M72.19,122.778c-11.597,3.33-23.616-8.538-25.204-10.274s-1.037-10.913-1.037-10.913c0,0,5.507,6.023,7.517,8.929,2.008,2.906,10.432,5.952,16.392,6.52,5.962.566,11.566-.177,11.566-.177,0,0,2.365,2.586-9.234,5.916Z" style="fill: #fff;"/>
      <path d="M99.706,101.581c-.525,2.564-2.141,7.326-7.041,14.051-6.58,9.027-14.017,17.499-18.639,21.274-7.946-.176-14.316-1.436-16.672-3.004,11.211-1.275,20.407-8.716,27.989-14.738,7.58-6.023,13.217-17.998,13.217-17.998,0,0,.325.353,1.146.415Z" style="fill: #fff;"/>
      <path d="M108.545,128.276c-1.282.697-2.731,1.399-4.225,2.068,6.327-11.865,4.603-27.162,3.75-32.402,1.952-.879,4.069-1.604,4.396-1.246.637.697,2.72,27.967-3.921,31.579Z" style="fill: aqua;"/>
      <path d="M104.32,130.344c-6.251,2.799-13.32,5.04-12.459,4.096,1.07-1.168,9.007-9.637,10.173-12.541,1.165-2.906,4.988-14.951,2.591-21.825-.112-.324,1.592-1.299,3.445-2.133.853,5.24,2.577,20.537-3.75,32.402Z" style="fill: #fff;"/>
      <path d="M122.08,107.345v10.331s-1.193.857-2.383,1.692v-12.023h2.383Z" style="fill: aqua;"/>
      <path d="M119.698,107.345v12.023c-1.127.794-2.253,1.567-2.347,1.567-.195,0,.453-13.59.453-13.59h1.894Z" style="fill: #fff;"/>
      <polygon points="130.309 107.345 126.745 111.866 126.745 106.905 130.309 107.345" style="fill: #fff;"/>
      <path d="M92.081,105.417c-.323,2.409-5.895,7.299-8.422,8.29-2.527.992-9.495,1.925-10.87,1.925-.803,0-1.226-1.5-1.438-3.115-.152-1.152-.198-2.364-.198-3.132,0-1.843-12.829-21.47-13.412-23.241-.317-.965-.559-2.57-.713-3.832-.127-1.054-.195-1.865-.195-1.865.195.24,6.739,11.153,13.801,13.704,7.062,2.551,11.274,3.543,12.829,3.543s8.942,5.315,8.617,7.723Z" style="fill: aqua;"/>
      <path d="M74.734,112.006c-.463.507-1.782.608-3.384.51-2.403-.145-5.445-.737-7.195-1.076-2.915-.566-8.841-4.535-10.626-7.299,2.334-1.843,2.613-7.794,2.917-10.558.304-2.762-.304-12.683-.304-12.683,0,0,.341.544.887,1.412,1.707,2.709,5.423,8.578,7.062,10.939,2.164,3.119,5.054,7.915,7.517,8.695,2.462.779,4.795,4.251,5.072,5.4.277,1.149-.786,3.396-1.944,4.661Z" style="fill: #fff;"/>
      <path d="M54.826,71.263v3.543s-6.609-2.906-7.84-7.299c-1.232-4.393,1.23-6.944,3.563-7.723,2.332-.779,3.758,1.843,3.758,1.843,0,0-2.138.106-3.271.106s-1.459,1.594-1.847,3.011c-.389,1.418,1.133,3.721,1.879,4.535.745.815,3.758,1.984,3.758,1.984Z" style="fill: #fff;"/>
      <path d="M53.527,133.263s-.012-.003-.024-.01c-.009-.003-.018-.008-.03-.013-.751-.313-8.85-3.722-9.636-4.582l-.003-.003c-.822-.902-2.002-3.769-3.144-8.228-1.143-4.464.977-15.634.977-15.634v.005c.038.673.117,1.373.232,2.093,0,.003.001.006.001.008,1.713,10.737,11.389,25.992,11.622,26.36.003.002.004.003.004.005Z" style="fill: aqua;"/>
      <path d="M99.956,101.59c0,7.936-.229,9.637-5.283,20.903-5.054,11.268-14.059,14.314-14.059,14.314-2.276.118-4.486.147-6.587.098,4.622-3.775,12.059-12.247,18.639-21.274,4.901-6.725,6.516-11.487,7.041-14.051.078.006.161.01.249.01Z" style="fill: aqua;"/>
      <path d="M45.856,60.492c-.029.026-.06.044-.091.056-1.135.434-3.333-7.672-3.746-9.242-.046-.168-.069-.261-.069-.261.212.142.417.284.615.423,0,0,.001,0,.003.002.813.57,1.511,1.105,2.104,1.609,5.433,4.598,2.257,6.497,1.185,7.414Z" style="fill: aqua;"/>
      <path d="M46.869,51.904l-.212.789c-.009-.202-.006-.439.012-.708.065-.021.133-.047.201-.081Z" style="fill: aqua;"/>
      <path d="M53.513,27.256c-.031.134-.105.457-.214.916-.379,1.584-1.177,4.792-2.042,7.446l2.018-7.488.237-.874Z" style="fill: aqua;"/>
      <path d="M79.178,23.392c-.081.278-.326.6-.692.95-2.11,2.023-8.236,4.973-10.184,5.752-1.199.481-3.104,1.126-4.902,1.615-1.257.342-2.461.607-3.336.686,1.754-1.528,4.396-3.559,7.087-4.64,4.005-1.607,8.834-3.872,12.026-4.363Z" style="fill: aqua;"/>
      <path d="M63.4,31.709c-1.257.342-2.461.607-3.336.686l3.336-.686Z" style="fill: aqua;"/>
      <path d="M79.178,23.392c-.081.278-.326.6-.692.95l.692-.95Z" style="fill: aqua;"/>
      <path d="M87.499,31.923c-.506.157-1.167.3-1.975.431-.834.136-1.825.255-2.967.361-3.175.292-5.587-.865-6.777-1.612-.536-.334-.823-.586-.823-.586.015-.01.029-.018.044-.027,2.493-.205,5.485-.463,6.621-.463,1.199,0,4.118.949,5.878,1.896Z" style="fill: aqua;"/>
      <path d="M75.779,31.104c-.536-.334-.823-.586-.823-.586.015-.01.029-.018.044-.027l.779.613Z" style="fill: aqua;"/>
      <path d="M87.499,31.923c-.506.157-1.167.3-1.975.431l1.975-.431Z" style="fill: aqua;"/>
      <path d="M95.891,31.209c-1.562-.376-3.265-.899-4.134-1.186-.235-.077-.478-.182-.727-.307-.081-.04-.164-.084-.246-.131-.058-.031-.115-.063-.174-.097-.058-.032-.115-.066-.174-.102-.003-.002-.006-.003-.01-.006-.035-.021-.072-.044-.108-.066-.035-.021-.072-.044-.108-.068-.065-.04-.131-.082-.196-.126-.077-.05-.155-.103-.232-.157-.077-.052-.153-.106-.232-.161-.034-.024-.069-.048-.103-.074-.035-.024-.069-.05-.105-.076-.165-.121-.326-.244-.484-.368-.053-.04-.106-.081-.158-.123-.103-.084-.205-.166-.304-.247,0-.002-.002-.002-.002-.002,1.958.326,5.084,1.128,6.342,2.114.543.426.909.829,1.154,1.181Z" style="fill: aqua;"/>
      <path d="M95.891,31.209c-1.562-.376-3.265-.899-4.134-1.186-.235-.077-.478-.182-.727-.307-.081-.04-.164-.084-.246-.131-.058-.031-.115-.063-.174-.097-.058-.032-.115-.066-.174-.102-.003-.002-.006-.003-.01-.006-.035-.021-.072-.044-.108-.066-.035-.021-.072-.044-.108-.068-.065-.04-.131-.082-.196-.126-.077-.05-.155-.103-.232-.157-.077-.052-.153-.106-.232-.161-.034-.024-.069-.048-.103-.074-.035-.024-.069-.05-.105-.076-.165-.121-.326-.244-.484-.368-.053-.04-.106-.081-.158-.123-.103-.084-.205-.166-.304-.247l7.494,3.293Z" style="fill: aqua;"/>
      <path d="M75,1.047C33.579,1.047,0,34.051,0,74.766s33.579,73.717,75,73.717c26.82,0,50.354-13.838,63.611-34.646,2.248-3.529,4.2-7.257,5.824-11.152,3.586-8.612,5.565-18.038,5.565-27.918C150,34.051,116.421,1.047,75,1.047ZM23.206,111.866s-3.305-4.182-3.37-4.464c0,0,2.722-.284,3.37.424.648.708,0,4.04,0,4.04ZM30.075,119.164s-2.009-1.701-2.139-2.125c-.128-.426.065-9.637,0-9.693h3.952l.972,13.945-2.785-2.126ZM53.504,133.253c-.009-.003-.018-.008-.03-.013-.751-.313-8.85-3.722-9.636-4.582l-.003-.003c-1.85-.928-3.393-1.752-3.977-2.193-1.878-1.417-2.655-9.566-3.175-16.015-.518-6.449,1.167-13.817,1.167-13.817,0,0,4.082-.708,3.693,3.33-.12,1.246-.055,2.928.125,4.832v.005c.065.673.143,1.373.232,2.093,0,.003.001.006.001.008,1.713,10.737,11.389,25.992,11.622,26.36.003.002.004.003.004.005-.003,0-.012-.003-.024-.01ZM41.949,51.045c.212.142.417.284.615.423,0,0,.001,0,.003.002.729.286,1.348.81,2.104,1.609,5.433,4.598,2.257,6.497,1.185,7.414-.029.026-.06.044-.091.056-.463.534-.972,1.066-1.371,1.502-.972,1.063-2.754-5.137-3.37-5.81-.615-.673-.233-5.031,0-5.031.364,0,.692.032.994.097-.046-.168-.069-.261-.069-.261ZM55.279,38.101c-.226,1.049-5.597,12.464-8.409,13.803l-.212.789c-.009-.202-.006-.439.012-.708-.329.103-.617.047-.85-.208-2.17-2.373-2.073-8.22-1.36-13.251.713-5.031,8.552-10.771,8.552-10.771.088.097.177.224.264.376l.237-.874c-.031.134-.105.457-.214.916,1.183,2.117,2.22,8.814,1.98,9.929ZM102.384,38.467c0,.899-2.366-.899-3.305-1.926-.94-1.026-1.555-2.173-1.555-2.173,0,0,1.165-.094,3.11.473,1.943.568,1.75,2.728,1.75,3.627ZM102.999,47.844c-.357,2.054-1.88-2.055-2.495-2.728-.615-.674-.407-3.459,0-3.401,2.008.282,2.85,4.074,2.495,6.129ZM95.891,31.209c-1.562-.376-3.265-.899-4.134-1.186-.235-.077-.478-.182-.727-.307-.081-.04-.164-.084-.246-.131-.058-.031-.115-.063-.174-.097-.058-.032-.115-.066-.174-.102-.003-.002-.006-.003-.01-.006-.035-.021-.072-.044-.108-.066-.035-.021-.072-.044-.108-.068-.065-.04-.131-.082-.196-.126-.077-.05-.155-.103-.232-.157-.077-.052-.153-.106-.232-.161-.034-.024-.069-.048-.103-.074-.035-.024-.069-.05-.105-.076-.164-.121-.326-.244-.484-.368-.053-.04-.106-.081-.158-.123-.103-.084-.205-.166-.304-.247,0-.002-.002-.002-.002-.002h-.001c-1.011-.833-1.756-1.576-1.756-1.576h5.637c2.527,0,4.277,2.267,6.544,4.393,1.347,1.263-.643,1.026-2.928.478ZM97.2,41.715c0,1.381-3.012-1.383-3.952-2.41-.925-1.012-.971-4.359-.972-4.463,0,0,2.973,1.851,3.952,2.923.981,1.071.972,2.567.972,3.95ZM88.705,39.163c-.612.67-2.514,1.391-3.911.731-1.396-.66-3.598-2.147-4.181-3.99-.086-.268,5.507.355,6.608,0,1.102-.353,1.484-.771,1.484-.353s.612,2.944,0,3.612ZM88.55,30.766c.398.436.024.823-1.052,1.157-.506.157-1.167.3-1.975.431-.834.136-1.825.255-2.967.361-3.175.292-5.587-.865-6.777-1.612-.536-.334-.823-.586-.823-.586.015-.01.029-.018.044-.027,2.74-1.675,4.265-1.886,6.83-1.886,2.579,0,5.942,1.312,6.72,2.162ZM77.179,42.919c-4.407,2.551-8.023-1.734-7.452-1.63.389.071,1.199-.177,1.685-.708.487-.532,2.138-1.984,2.592-2.48.453-.497.713-2.197,1.49-2.197s6.09,4.464,1.685,7.015ZM79.178,23.392c-.081.278-.326.6-.692.95-2.11,2.023-8.236,4.973-10.184,5.752-1.199.481-3.104,1.126-4.902,1.615-1.257.342-2.461.607-3.336.686-.646.058-1.112.015-1.286-.176,0,0,4.277-6.731,8.422-8.148,4.147-1.418,9.007-2.693,11.599-1.418.363.179.471.432.379.739ZM63.404,34.982c2.617-1.063,8.267-.424,8.267-.424-.972,1.63-1.685,2.409-3.434,3.401-1.75.992-8.229,2.622-10.626,2.622s3.175-4.535,5.793-5.599ZM61.175,50.289c3.045-1.559,2.85-7.37,2.85-7.37,2.657,1.276,2.269,3.472,2.269,5.705s-8.164,3.224-5.119,1.665ZM60.495,57.941c-.422,2.693-5.249-.319-5.799-.921-.347-.379-1.565-.411-2.341-.382.95-.155,1.792-.628,2.843-1.034,1.279-.497,1.766-1.63,3.256-2.197,1.49-.566,2.462,1.843,2.042,4.535ZM60.333,43.84c0,.708-.195,1.772-2.073,4.784-1.879,3.011-7.064,4.782-7.971,4.782s1.037-4.18,3.176-6.518c2.138-2.339,6.867-3.048,6.867-3.048ZM52.353,56.637c-.207.034-.418.053-.637.053-.121,0,.181-.037.637-.053ZM50.549,59.784c2.332-.779,3.758,1.843,3.758,1.843,0,0-2.138.106-3.271.106s-1.459,1.594-1.847,3.011c-.389,1.418,1.133,3.721,1.879,4.535.745.815,3.758,1.984,3.758,1.984v-3.19c0-1.062-.13-1.947.81-1.947s1.522,1.594,2.495,1.594,2.268.707,3.368-.499c.142-.155.335-.229.566-.236-.086-.616-.112-.86-.112-.86,0-.815-1.099-1.31-1.359-1.596-.261-.284-1.199-.426-1.199-1.312s1.91-1.45,2.558-2.16c.648-.708,2.136-2.054,2.396-3.967.261-1.914-1.232-2.906,0-3.401,1.232-.497,3.716-.779,4.644-2.48.929-1.701.54-4.89,1.254-4.89s6.09,1.82,7.84.663c1.75-1.158,3.148-4.89,3.744-4.89s4.03,1.638,5.197,1.638,3.575-2.12,4.017-1.638c.441.484,1.685,2.173,2.72,2.527,1.037.355,2.666.029,3.045.444.381.416.227,2.498.714,3.028.485.532,2.431,1.849,2.431,2.661v5.431s-4.505-2.646-5.543-2.109c-1.036.537-3.586.741-3.656,2.109-.069,1.368,2.458,14.053,1.843,14.726-.617.673-.842,1.134-5.442,1.134s-4.212.213-3.694-2.338-2.56.886-2.267,1.204c.292.319.26,2.622,1.944,2.977,1.683.353,2.72-.071,3.11.353.388.426,2.843,2.26,2.455,2.686-.389.424,1.238.786-2.067,1.141-3.305.355-4.861-.284-6.026.355-1.165.637-2.203.992-2.203,1.772s.714,1.488,1.555,1.133c.842-.353,1.362-1.346,2.397-1.346s6.068-.599,6.615,0c.549.599,1.27,1.807,0,2.196-1.269.39-4.346-.071-4.671.39-.325.46-1.031,2.373.488,2.373s3.7.039,4.182.568c.463.505,1.843,2.927,1.14,4.037v.003c-.553,2.046-4.405,5.576-14.753,2.407-7.366-2.256-12.956-8.432-14.77-13.462-1.816-5.032-5.768-3.685-5.768-3.685,0,0-6.609-2.906-7.84-7.299-1.232-4.393,1.23-6.944,3.563-7.723ZM56.142,80.9s.341.544.887,1.412c-.127-1.054-.195-1.865-.195-1.865.195.24,6.739,11.153,13.801,13.704,7.062,2.551,11.274,3.543,12.829,3.543s8.942,5.315,8.617,7.723c-.323,2.409-5.895,7.299-8.422,8.29-2.527.992-9.495,1.925-10.87,1.925-.803,0-1.226-1.5-1.438-3.115-2.403-.145-5.445-.737-7.195-1.076-2.915-.566-8.841-4.535-10.626-7.299,2.334-1.843,2.613-7.794,2.917-10.558.304-2.762-.304-12.683-.304-12.683ZM69.857,117.039c5.962.566,11.566-.177,11.566-.177,0,0,2.365,2.586-9.234,5.916-11.597,3.33-23.616-8.538-25.204-10.274s-1.037-10.913-1.037-10.913c0,0,5.507,6.023,7.517,8.929,2.008,2.906,10.432,5.952,16.392,6.52ZM50.226,121.29s4.795,2.975,6.478,3.685c1.685.708,7.581,1.912,7.776,1.912s-8.554,1.772-9.266,1.772-4.795-6.589-4.988-7.368ZM80.613,136.808c-2.276.118-4.486.147-6.587.098-7.946-.176-14.316-1.436-16.672-3.004,11.211-1.275,20.407-8.716,27.989-14.738,7.58-6.023,13.217-17.998,13.217-17.998,0,0,.325.353,1.146.415.078.006.161.01.249.01,0,7.936-.229,9.637-5.283,20.903-5.054,11.268-14.059,14.314-14.059,14.314ZM108.545,128.276c-1.282.697-2.731,1.399-4.225,2.068-6.251,2.799-13.32,5.04-12.459,4.096,1.07-1.168,9.007-9.637,10.173-12.541,1.165-2.906,4.988-14.951,2.591-21.825-.112-.324,1.592-1.299,3.445-2.133,1.952-.879,4.069-1.604,4.396-1.246.637.697,2.72,27.967-3.921,31.579ZM122.08,117.676s-1.193.857-2.383,1.692c-1.127.794-2.253,1.567-2.347,1.567-.195,0,.453-13.59.453-13.59h4.277v10.331ZM126.745,111.866v-4.961l3.564.44-3.564,4.521ZM139.024,102.563l-2.809-.061-2.731-.061c-4.601.284-15.551.071-15.551.071,0,0,.325-5.102,0-6.307-.323-1.204-2.657-4.18-3.952-4.18s-5.767,1.843-8.164,2.409c-2.397.568-10.949,3.472-10.949,2.764s-.13-8.361-.13-8.361c0,0,4.474-4.322,5.379-13.038.906-8.716.583-15.873.583-15.873,0,0,3.045-1.438,3.368-3.235.325-1.797,1.167-3.851,0-5.127-1.165-1.275,2.787-.092,2.787-4.58s-2.98-4.772-2.203-5.623c.777-.85,2.527-4.109,1.23-6.52-1.295-2.409-3.11-1.302-3.11-2.422s-2.85-8.703-9.459-9.411c-6.609-.708-10.302,0-10.302,0,0,0,.356-1.949-.389-2.764-.745-.815-7.062-3.33-14.254-.815-7.192,2.515-11.689,7.264-12.226,9.175-.538,1.914-.733-2.975-2.741-2.975s-7.785,3.825-9.563,9.211c-1.776,5.386-1.776,11.699-1.776,13.574s-.713-1.668-3.045-.465c-2.334,1.205-2.462,8.993-.907,11.689,1.555,2.696,3.637,5.558,4.6,6.612.963,1.054-.081,1.754.963,3.666,1.045,1.914,2.924,4.322,4.026,4.89,1.101.566-1.102,3.104,1.101,4.882,2.204,1.778,2.797,1.849,2.89,2.062.091.213,0,15.447,0,15.447,0,0-9.887-3.33-12.867-5.102-2.982-1.772-6.804,1.984-6.804,3.472v6.944s-17.947-.495-18.401,0c-.453.497-1.49.637-.972,1.701.004.008.009.018.013.029-4.505-8.89-7.031-18.877-7.031-29.435C5.627,37.673,36.879,7.572,75.431,7.572s69.803,30.101,69.803,67.234c0,9.898-2.22,19.296-6.209,27.757Z"/>
      <text transform="translate(40.165 138.046) rotate(26.618) scale(.871 1.019) skewX(-.455)" style="fill: #fff; font-family: Alfarn2, &apos;Alfarn 2&apos;; font-size: 8.469px;"><tspan x="0" y="0">C</tspan></text>
      <text transform="translate(44.612 140.287) rotate(22.176) scale(.872 1.019) skewX(-.841)" style="fill: #fff; font-family: Alfarn2, &apos;Alfarn 2&apos;; font-size: 8.469px;"><tspan x="0" y="0">A</tspan></text>
      <text transform="translate(50.111 142.504) rotate(17.523) scale(.873 1.017) skewX(-1.224)" style="fill: #fff; font-family: Alfarn2, &apos;Alfarn 2&apos;; font-size: 8.469px;"><tspan x="0" y="0">E</tspan></text>
      <text transform="translate(55.172 144.095) rotate(13.059) scale(.875 1.016) skewX(-1.561)" style="fill: #fff; font-family: Alfarn2, &apos;Alfarn 2&apos;; font-size: 8.469px;"><tspan x="0" y="0">S</tspan></text>
      <text transform="translate(60.515 145.334) rotate(8.4) scale(.876 1.014) skewX(-1.872)" style="fill: #fff; font-family: Alfarn2, &apos;Alfarn 2&apos;; font-size: 8.469px;"><tspan x="0" y="0">A</tspan></text>
      <text transform="translate(66.416 146.194) rotate(3.498) scale(.879 1.011) skewX(-2.146)" style="fill: #fff; font-family: Alfarn2, &apos;Alfarn 2&apos;; font-size: 8.469px;"><tspan x="0" y="0">R</tspan></text>
      <text transform="translate(72.387 146.498) rotate(.203) scale(.88 1.009) skewX(-2.296)" style="fill: #fff; font-family: Alfarn2, &apos;Alfarn 2&apos;; font-size: 8.469px;"><tspan x="0" y="0"> </tspan></text>
      <text transform="translate(74.493 146.539) rotate(-2.686) scale(.882 1.007) skewX(-2.402)" style="fill: #fff; font-family: Alfarn2, &apos;Alfarn 2&apos;; font-size: 8.469px;"><tspan x="0" y="0">C</tspan></text>
      <text transform="translate(79.598 146.26) rotate(-5.783) scale(.884 1.005) skewX(-2.488)" style="fill: #fff; font-family: Alfarn2, &apos;Alfarn 2&apos;; font-size: 8.469px;"><tspan x="0" y="0">I</tspan></text>
      <text transform="translate(82.283 146.028) rotate(-9.129) scale(.886 1.003) skewX(-2.549)" style="fill: #fff; font-family: Alfarn2, &apos;Alfarn 2&apos;; font-size: 8.469px;"><tspan x="0" y="0">P</tspan></text>
      <text transform="translate(88.048 145.083) rotate(-13.527) scale(.889 1) skewX(-2.576)" style="fill: #fff; font-family: Alfarn2, &apos;Alfarn 2&apos;; font-size: 8.469px;"><tspan x="0" y="0">H</tspan></text>
      <text transform="translate(94.218 143.551) rotate(-18.327) scale(.892 .997) skewX(-2.537)" style="fill: #fff; font-family: Alfarn2, &apos;Alfarn 2&apos;; font-size: 8.469px;"><tspan x="0" y="0">E</tspan></text>
      <text transform="translate(99.37 141.849) rotate(-22.747) scale(.894 .994) skewX(-2.438)" style="fill: #fff; font-family: Alfarn2, &apos;Alfarn 2&apos;; font-size: 8.469px;"><tspan x="0" y="0">R</tspan></text>
    </g>
  </g>
</svg>